<svg width="28" height="28" viewBox="0 0 28 28" fill="none" xmlns="http://www.w3.org/2000/svg">
<g clip-path="url(#clip0_1004_658)">
<path fill-rule="evenodd" clip-rule="evenodd" d="M14 0C16.6075 0.0297552 18.9632 0.670609 21.0669 1.92256C23.1456 3.14952 24.8748 4.88924 26.089 6.97536C27.3334 9.0918 27.9703 11.4617 28 14.0851C27.9261 17.6746 26.794 20.7403 24.6036 23.2824C22.4132 25.8244 19.6078 27.3971 16.7037 27.9999V17.9362H19.4493L20.0702 13.9814H15.9128V11.3911C15.8897 10.8541 16.0595 10.3266 16.3915 9.90394C16.724 9.48011 17.3095 9.25735 18.148 9.23566H20.6585V5.77134C20.6225 5.75975 20.2807 5.71392 19.6331 5.63385C18.8987 5.54792 18.1601 5.50202 17.4207 5.49636C15.7471 5.50408 14.4236 5.97616 13.45 6.91259C12.4764 7.84877 11.9791 9.20321 11.958 10.9759V13.9814H8.79414V17.9362H11.958V27.9999C8.39217 27.3971 5.58679 25.8244 3.3964 23.2824C1.206 20.7403 0.0739096 17.6746 0 14.0851C0.0295706 11.4616 0.66655 9.09168 1.91094 6.97536C3.12522 4.88924 4.85438 3.14952 6.93307 1.92256C9.03678 0.67085 11.3924 0.0299962 14 0Z" fill="white"/>
</g>
<defs>
<clipPath id="clip0_1004_658">
<rect width="28" height="28" fill="white"/>
</clipPath>
</defs>
</svg>
