<svg width="28" height="28" viewBox="0 0 28 28" fill="none" xmlns="http://www.w3.org/2000/svg">
<g clip-path="url(#clip0_1004_647)">
<path d="M16.6797 14C16.6797 15.48 15.48 16.6797 14 16.6797C12.52 16.6797 11.3203 15.48 11.3203 14C11.3203 12.52 12.52 11.3203 14 11.3203C15.48 11.3203 16.6797 12.52 16.6797 14Z" fill="white"/>
<path fill-rule="evenodd" clip-rule="evenodd" d="M20.2667 9.25882C20.1379 8.90976 19.9324 8.59381 19.6654 8.33447C19.406 8.06744 19.0903 7.86194 18.741 7.73312C18.4578 7.62311 18.0322 7.49216 17.2484 7.45648C16.4006 7.41782 16.1464 7.40948 13.9999 7.40948C11.8532 7.40948 11.599 7.4176 10.7513 7.45627C9.96753 7.49216 9.54178 7.62311 9.25873 7.73312C8.90945 7.86194 8.59351 8.06744 8.33438 8.33447C8.06735 8.59381 7.86185 8.90955 7.73282 9.25882C7.6228 9.54208 7.49185 9.96783 7.45618 10.7516C7.41751 11.5993 7.40918 11.8535 7.40918 14.0002C7.40918 16.1467 7.41751 16.4009 7.45618 17.2487C7.49185 18.0325 7.6228 18.4581 7.73282 18.7413C7.86185 19.0906 8.06714 19.4063 8.33417 19.6657C8.59351 19.9327 8.90924 20.1382 9.25851 20.267C9.54178 20.3773 9.96753 20.5082 10.7513 20.5439C11.599 20.5826 11.853 20.5907 13.9997 20.5907C16.1466 20.5907 16.4008 20.5826 17.2482 20.5439C18.032 20.5082 18.4578 20.3773 18.741 20.267C19.4421 19.9966 19.9963 19.4424 20.2667 18.7413C20.3767 18.4581 20.5077 18.0325 20.5436 17.2487C20.5822 16.4009 20.5904 16.1467 20.5904 14.0002C20.5904 11.8535 20.5822 11.5993 20.5436 10.7516C20.5079 9.96783 20.377 9.54208 20.2667 9.25882ZM13.9999 18.128C11.7199 18.128 9.87161 16.28 9.87161 14C9.87161 11.72 11.7199 9.87192 13.9999 9.87192C16.2797 9.87192 18.1279 11.72 18.1279 14C18.1279 16.28 16.2797 18.128 13.9999 18.128ZM18.2911 10.6734C17.7584 10.6734 17.3264 10.2415 17.3264 9.70871C17.3264 9.17593 17.7584 8.74399 18.2911 8.74399C18.8239 8.74399 19.2559 9.17593 19.2559 9.70871C19.2556 10.2415 18.8239 10.6734 18.2911 10.6734Z" fill="white"/>
<path fill-rule="evenodd" clip-rule="evenodd" d="M0 14C0 6.2692 6.2692 0 14 0C21.7308 0 28 6.2692 28 14C28 21.7308 21.7308 28 14 28C6.2692 28 0 21.7308 0 14ZM21.6169 19.2658C21.8156 18.7544 21.9517 18.1701 21.9906 17.3144C22.0299 16.4571 22.0391 16.1832 22.0391 14C22.0391 11.8168 22.0299 11.5429 21.9908 10.6856C21.9517 9.82986 21.8158 9.24561 21.6169 8.73419C21.4153 8.19778 21.0987 7.71201 20.6898 7.31039C20.2882 6.90131 19.8022 6.58472 19.2658 6.38284C18.7544 6.18439 18.1701 6.04852 17.3144 6.00964C16.4571 5.97034 16.1832 5.96094 14 5.96094C11.8168 5.96094 11.5429 5.97034 10.6856 6.00943C9.82986 6.04852 9.24561 6.18439 8.73419 6.38306C8.19778 6.58493 7.71179 6.90131 7.31039 7.31039C6.90131 7.71179 6.58472 8.19778 6.38284 8.73419C6.18417 9.24561 6.04831 9.82986 6.00943 10.6856C5.97012 11.5429 5.96094 11.8168 5.96094 14C5.96094 16.1832 5.97012 16.4571 6.00964 17.3146C6.04852 18.1701 6.1846 18.7546 6.38327 19.2658C6.58514 19.8022 6.90152 20.2882 7.31039 20.6896C7.71201 21.0987 8.19778 21.4151 8.73441 21.6169C9.24561 21.8156 9.83008 21.9515 10.6856 21.9906C11.5431 22.0297 11.8168 22.0391 14.0002 22.0391C16.1834 22.0391 16.4573 22.0297 17.3146 21.9906C18.1701 21.9515 18.7546 21.8156 19.2658 21.6169C20.3457 21.1993 21.1993 20.3457 21.6169 19.2658Z" fill="white"/>
</g>
<defs>
<clipPath id="clip0_1004_647">
<rect width="28" height="28" fill="white"/>
</clipPath>
</defs>
</svg>
