<svg width="28" height="28" viewBox="0 0 28 28" fill="none" xmlns="http://www.w3.org/2000/svg">
<g clip-path="url(#clip0_1004_651)">
<path d="M10.0642 6.8356H7.88271L17.924 21.1987H20.1055L10.0642 6.8356Z" fill="white"/>
<path fill-rule="evenodd" clip-rule="evenodd" d="M0 14C0 6.26828 6.26828 0 14 0C21.7317 0 28 6.26828 28 14C28 21.7317 21.7317 28 14 28C6.26828 28 0 21.7317 0 14ZM21.525 5.76642L15.5318 12.7331L22.0497 22.2192H17.2559L12.8665 15.8312L7.37097 22.2192H5.95068L12.2359 14.9136L5.95068 5.76642H10.7445L14.9009 11.8155L20.1048 5.76642H21.525Z" fill="white"/>
</g>
<defs>
<clipPath id="clip0_1004_651">
<rect width="28" height="28" fill="white"/>
</clipPath>
</defs>
</svg>
