<svg width="28" height="28" viewBox="0 0 28 28" fill="none" xmlns="http://www.w3.org/2000/svg">
<g clip-path="url(#clip0_1004_655)">
<path d="M16.8104 14L12.2563 16.6229V11.3771L16.8104 14Z" fill="white"/>
<path fill-rule="evenodd" clip-rule="evenodd" d="M0 14C0 6.2692 6.2692 0 14 0C21.7308 0 28 6.2692 28 14C28 21.7308 21.7308 28 14 28C6.2692 28 0 21.7308 0 14ZM22.3877 18.2227C22.7479 16.8536 22.7479 14.0143 22.7479 14.0143C22.7479 14.0143 22.7624 11.1609 22.3877 9.79184C22.1858 9.04245 21.5949 8.45135 20.8456 8.24969C19.4764 7.875 14 7.875 14 7.875C14 7.875 8.52356 7.875 7.15445 8.23538C6.41937 8.43704 5.81396 9.04245 5.6123 9.79184C5.25192 11.1609 5.25192 14 5.25192 14C5.25192 14 5.25192 16.8536 5.6123 18.2082C5.81418 18.9576 6.40506 19.5486 7.15445 19.7503C8.53787 20.125 14 20.125 14 20.125C14 20.125 19.4764 20.125 20.8456 19.7646C21.5949 19.563 22.1858 18.9721 22.3877 18.2227Z" fill="white"/>
</g>
<defs>
<clipPath id="clip0_1004_655">
<rect width="28" height="28" fill="white"/>
</clipPath>
</defs>
</svg>
