<svg width="24" height="24" viewBox="0 0 24 24" fill="none" xmlns="http://www.w3.org/2000/svg">
<path fill-rule="evenodd" clip-rule="evenodd" d="M12 0C8.68629 0 6 2.68629 6 6C6 9.31371 8.68629 12 12 12C15.3137 12 18 9.31371 18 6C18 2.68629 15.3137 0 12 0ZM8 6C8 3.79086 9.79086 2 12 2C14.2091 2 16 3.79086 16 6C16 8.20914 14.2091 10 12 10C9.79086 10 8 8.20914 8 6Z" fill="black"/>
<path fill-rule="evenodd" clip-rule="evenodd" d="M9.29133 13.4567C7.53624 12.7195 6.6587 12.3509 6.09501 12.3362C5.59764 12.3233 5.10354 12.4346 4.65982 12.6597C4.15692 12.9147 4.03201 13.0544 3.7822 13.3336C2.88467 14.3369 2.27282 15.6018 2.07125 17.0038C2 17.4993 2 18.0905 2 19.2727C2 19.9483 2 20.2861 2.04071 20.5692C2.29334 22.3263 3.6737 23.7066 5.43074 23.9593C5.71391 24 6.0517 24 6.72727 24H17.2727C17.9483 24 18.2861 24 18.5693 23.9593C20.3263 23.7066 21.7067 22.3263 21.9593 20.5692C22 20.2861 22 19.9483 22 19.2727C22 18.0905 22 17.4993 21.9288 17.0038C21.7272 15.6018 21.1153 14.3369 20.2178 13.3336C19.968 13.0544 19.8431 12.9147 19.3402 12.6597C18.8965 12.4346 18.4024 12.3233 17.905 12.3362C17.3413 12.3509 16.4638 12.7195 14.7087 13.4567C13.8755 13.8066 12.9603 14 12 14C11.0397 14 10.1245 13.8066 9.29133 13.4567ZM4.05089 17.2884C4.19495 16.2865 4.63134 15.3841 5.2728 14.6671C5.34207 14.5896 5.37507 14.5542 5.38853 14.54C5.40933 14.5268 5.46106 14.4958 5.56451 14.4434C5.70628 14.3715 5.86432 14.3342 6.02319 14.3352C6.02407 14.3356 6.02737 14.3363 6.03337 14.3377C6.072 14.3465 6.22263 14.3807 6.55981 14.504C7.01397 14.67 7.62032 14.9241 8.51684 15.3006C9.59085 15.7517 10.769 16 12 16C13.231 16 14.4092 15.7517 15.4832 15.3006C16.3797 14.9241 16.986 14.67 17.4402 14.504C17.7774 14.3807 17.928 14.3465 17.9666 14.3377C17.9726 14.3363 17.9759 14.3356 17.9768 14.3352C18.1357 14.3342 18.2937 14.3715 18.4355 14.4434C18.5389 14.4958 18.5907 14.5268 18.6115 14.54C18.6249 14.5542 18.6579 14.5896 18.7272 14.6671C19.3687 15.3841 19.8051 16.2865 19.9491 17.2884C19.9949 17.6067 20 18.0211 20 19.2727C20 20.0177 19.9949 20.1787 19.9796 20.2846C19.8533 21.1631 19.1631 21.8533 18.2846 21.9796C18.1787 21.9949 18.0177 22 17.2727 22H6.72727C5.98229 22 5.82127 21.9949 5.71537 21.9796C4.83685 21.8533 4.14667 21.1631 4.02036 20.2846C4.00513 20.1787 4 20.0177 4 19.2727C4 18.0211 4.00513 17.6067 4.05089 17.2884ZM5.37708 14.5476C5.37703 14.5476 5.37783 14.547 5.37961 14.5458L5.37708 14.5476Z" fill="black"/>
</svg>
