<svg width="16" height="16" viewBox="0 0 16 16" fill="none" xmlns="http://www.w3.org/2000/svg">
<g clip-path="url(#clip0_1014_2)">
<path d="M12.4449 7.37568L5.32473 0.255608C5.16005 0.090796 4.94021 0 4.70581 0C4.47141 0 4.25157 0.090796 4.08689 0.255608L3.56253 0.779831C3.22133 1.12142 3.22133 1.6766 3.56253 2.01767L9.54154 7.99668L3.5559 13.9823C3.39122 14.1471 3.30029 14.3668 3.30029 14.6011C3.30029 14.8357 3.39122 15.0554 3.5559 15.2203L4.08025 15.7444C4.24507 15.9092 4.46477 16 4.69918 16C4.93358 16 5.15342 15.9092 5.3181 15.7444L12.4449 8.61782C12.61 8.45248 12.7007 8.23174 12.7002 7.99707C12.7007 7.7615 12.61 7.54088 12.4449 7.37568Z" fill="black"/>
</g>
<defs>
<clipPath id="clip0_1014_2">
<rect width="16" height="16" fill="white"/>
</clipPath>
</defs>
</svg>
