<svg width="24" height="24" viewBox="0 0 24 24" fill="none" xmlns="http://www.w3.org/2000/svg">
<path fill-rule="evenodd" clip-rule="evenodd" d="M0 2C0 1.44772 0.447715 1 1 1H4.5C4.95216 1 5.34807 1.30341 5.46562 1.74003L6.07407 4H22.5C22.8161 4 23.1136 4.14946 23.3023 4.40307C23.491 4.65668 23.5487 4.98457 23.4578 5.28735L20.4578 15.2873C20.3309 15.7103 19.9416 16 19.5 16H8C7.54784 16 7.15193 15.6966 7.03438 15.26L3.73362 3H1C0.447715 3 0 2.55228 0 2ZM6.61253 6L8.76638 14H18.756L21.156 6H6.61253Z" fill="black"/>
<path fill-rule="evenodd" clip-rule="evenodd" d="M10 23C11.6569 23 13 21.6569 13 20C13 18.3431 11.6569 17 10 17C8.34315 17 7 18.3431 7 20C7 21.6569 8.34315 23 10 23ZM10 21C10.5523 21 11 20.5523 11 20C11 19.4477 10.5523 19 10 19C9.44772 19 9 19.4477 9 20C9 20.5523 9.44772 21 10 21Z" fill="black"/>
<path fill-rule="evenodd" clip-rule="evenodd" d="M21 20C21 21.6569 19.6569 23 18 23C16.3431 23 15 21.6569 15 20C15 18.3431 16.3431 17 18 17C19.6569 17 21 18.3431 21 20ZM19 20C19 20.5523 18.5523 21 18 21C17.4477 21 17 20.5523 17 20C17 19.4477 17.4477 19 18 19C18.5523 19 19 19.4477 19 20Z" fill="black"/>
</svg>
